PathFileType  4	(X/Y/Z) C:\Users\antoi\Documents\MyRepositories\mobilecap\ResultsAnalysis
DataRate	CameraRate	NumFrames	NumMarkers	Units	OrigDataRate	OrigDataStartFrame	OrigNumFrames
100.0	100.0	7	51	mm	100.0	1396	1861
Frame#	Time	r_knee			r_shank_antsup			r_ankle			r_calc			r_5meta			r_toe			L_knee			L_shank_antsup			L_ankle			L_calc			L_5meta			L_toe			r_sh2			r_sh3			r_sh4			L_sh2			L_sh3			r_thigh1			r_thigh2			r_thigh3			r_thigh4			r_thigh5			L_thigh1			L_thigh2			L_thigh3			L_thigh4			r.ASIS			r.PSIS			L.ASIS			L.PSIS			C7			R_Shoulder			L_Shoulder			R_Sternum			L_Sternum			R_humerus			R_elbow_med			R_elbow_lat			R_forearm			R_wrist_radius			R_wrist_ulna			L_humerus			L_elbow_med			L_elbow_lat			L_forearm			L_wrist_radius			L_wrist_ulna			R_HJC			L_HJC			R_HJC_reg			L_HJC_reg			
		X1	Y1	Z1	X2	Y2	Z2	X3	Y3	Z3	X4	Y4	Z4	X5	Y5	Z5	X6	Y6	Z6	X7	Y7	Z7	X8	Y8	Z8	X9	Y9	Z9	X10	Y10	Z10	X11	Y11	Z11	X12	Y12	Z12	X13	Y13	Z13	X14	Y14	Z14	X15	Y15	Z15	X16	Y16	Z16	X17	Y17	Z17	X18	Y18	Z18	X19	Y19	Z19	X20	Y20	Z20	X21	Y21	Z21	X22	Y22	Z22	X23	Y23	Z23	X24	Y24	Z24	X25	Y25	Z25	X26	Y26	Z26	X27	Y27	Z27	X28	Y28	Z28	X29	Y29	Z29	X30	Y30	Z30	X31	Y31	Z31	X32	Y32	Z32	X33	Y33	Z33	X34	Y34	Z34	X35	Y35	Z35	X36	Y36	Z36	X37	Y37	Z37	X38	Y38	Z38	X39	Y39	Z39	X40	Y40	Z40	X41	Y41	Z41	X42	Y42	Z42	X43	Y43	Z43	X44	Y44	Z44	X45	Y45	Z45	X46	Y46	Z46	X47	Y47	Z47	X48	Y48	Z48	X49	Y49	Z49	X50	Y50	Z50	X51	Y51	Z51	

1396	13.95000000	-146.27068	445.89130	-401.03876	-93.49818	387.13370	-398.87968	-222.16598	80.51477	-424.05297	-276.95174	53.91641	-470.66889	-115.45280	41.83160	-399.99385	-78.24205	62.98319	-452.36291	-127.56273	450.45119	-775.85624	-78.96537	362.37120	-766.72754	-208.47805	91.82744	-774.08523	-268.36061	51.00559	-729.72277	-109.16196	44.75809	-803.65398	-58.66935	61.94368	-749.45996	-129.67208	279.81756	-397.42586	-162.21156	409.82765	-373.89841	-204.71540	301.66729	-374.24165	-153.01951	395.22278	-805.14536	-184.83945	276.96784	-814.76265	-353.31958	586.57818	-380.00761	-249.39764	547.19320	-379.99681	-289.47618	444.51316	-406.83465	-399.49000	486.27228	-392.72398	-255.12827	476.44137	-379.16722	-359.21532	604.31168	-789.67756	-233.91106	551.14400	-781.64986	-411.98035	503.62324	-792.69694	-284.47605	449.48227	-771.23435	-357.79487	617.47862	-481.07653	-513.03534	747.99044	-555.09589	-356.54395	632.91849	-696.30754	-513.41742	743.69314	-635.25501	-55.57980	891.53410	-591.73013	-33.82983	832.21975	-464.39087	-35.39292	826.23623	-712.54568	-44.02575	752.58396	-564.67916	-47.24530	746.86689	-594.20827	-19.53131	751.90880	-391.49491	-76.71591	552.89207	-318.00458	-35.90243	589.54525	-271.12924	56.49877	586.87864	-290.95413	176.92668	552.49295	-337.84929	177.48507	520.92666	-315.88771	-23.51876	753.57956	-787.70524	-38.11188	532.64080	-828.56755	-5.47062	572.17818	-873.44835	97.87612	553.42254	-853.35362	207.58263	519.92412	-805.90249	201.88659	486.06953	-826.69713	-469.15889	581.86148	-490.72878	-462.18353	591.96247	-697.87106	-449.60855	609.80860	-508.80114	-450.28783	602.18421	-651.01695	
1397	13.96000000	-147.66422	445.89283	-400.46254	-94.49289	387.28700	-398.45297	-222.28119	80.37125	-424.05149	-276.96059	53.91849	-470.69297	-115.50917	41.84882	-399.90521	-78.34231	63.16003	-452.21800	-129.05818	450.71137	-776.88319	-79.83005	362.55991	-768.02313	-208.58477	91.81367	-774.35478	-268.38836	51.00473	-729.79548	-109.23138	44.77987	-803.73067	-58.98751	61.86298	-749.62634	-130.38771	279.92045	-397.14733	-163.29312	409.67417	-373.78250	-205.45945	301.20568	-373.97577	-154.04773	395.05562	-806.11645	-185.60536	276.93439	-815.80910	-356.48023	583.95947	-380.06117	-252.13942	545.90521	-379.66689	-290.83068	442.60444	-406.81734	-401.41633	483.16564	-392.77913	-256.86783	475.10218	-378.97980	-362.14218	602.12803	-789.98038	-236.41381	550.05220	-782.13849	-413.91380	500.94348	-793.52268	-285.78806	447.87942	-772.24764	-360.76820	613.66936	-481.38760	-516.43016	743.71604	-555.12565	-359.13990	629.81451	-695.65199	-516.87264	739.49297	-635.25117	-59.20527	888.63501	-592.15519	-37.07951	829.62993	-464.78116	-39.11210	823.25335	-712.71377	-47.02252	749.42452	-564.91370	-49.44835	745.42701	-597.10920	-22.44845	749.42767	-391.81783	-78.86341	550.44351	-318.11331	-38.29817	587.33418	-270.99288	54.09168	584.64701	-290.91932	174.58270	550.10432	-337.75061	175.14831	518.61167	-315.66103	-27.22627	750.51687	-787.99433	-40.71533	528.92438	-826.49585	-9.21550	568.95961	-873.02374	94.45342	549.98977	-853.27057	204.11932	516.66916	-806.24028	198.46959	482.02074	-826.05937	-471.97247	577.56953	-491.00925	-464.52907	588.25749	-698.10529	-452.10173	606.18738	-508.87080	-452.88457	598.72186	-650.49275	
1398	13.97000000	-149.06300	445.80578	-400.03437	-95.56904	387.54506	-397.96559	-222.35657	80.29893	-424.00592	-276.98469	53.86907	-470.71108	-115.49177	41.89056	-399.74424	-78.42704	63.30504	-452.16856	-130.61545	450.93982	-778.08471	-80.81449	362.71408	-769.04698	-208.75346	91.74570	-774.69013	-268.47692	50.94870	-729.82656	-109.28399	44.74830	-803.74441	-59.20846	61.90705	-749.77783	-131.07529	280.09086	-396.76844	-164.39037	409.55425	-373.68701	-206.28972	300.63296	-373.90109	-155.04491	394.96303	-807.21180	-186.35281	276.81742	-816.63034	-359.70091	581.44793	-380.00895	-254.75047	544.47843	-379.51816	-292.24580	440.83191	-406.49489	-403.26126	479.97016	-392.97097	-258.60869	473.66433	-379.00012	-365.07428	599.92809	-790.39446	-238.94887	549.01755	-782.80164	-415.85997	498.28775	-794.52138	-287.11240	446.41496	-773.56239	-363.76524	609.99998	-481.55664	-519.97897	739.41087	-555.03267	-361.65294	626.72272	-694.96219	-520.27798	735.31650	-635.04772	-63.07289	886.17737	-592.49820	-40.52471	827.48892	-465.21560	-43.01011	820.68897	-712.80104	-50.22444	746.76407	-565.14373	-52.42383	743.67053	-598.61982	-25.68856	747.40718	-392.12919	-81.11088	548.29308	-318.16085	-40.80348	585.37972	-271.11924	51.63167	582.79441	-291.01631	172.15945	548.18562	-337.70985	172.70887	516.66510	-315.61670	-31.15989	747.87490	-788.28565	-44.19968	526.07057	-825.86180	-13.06103	566.27759	-872.83316	90.85971	547.06544	-853.44690	200.63168	513.87014	-806.62234	194.96994	478.86621	-826.01367	-474.75280	573.29586	-491.17235	-466.81567	584.57996	-698.21999	-454.75288	602.40134	-509.05362	-455.27940	595.18065	-650.15437	
1399	13.98000000	-150.43160	445.67406	-399.66827	-96.60386	387.74834	-397.56221	-222.36796	80.33124	-423.95227	-277.02103	53.78436	-470.74269	-115.50943	41.96584	-399.65693	-78.48699	63.45882	-452.16230	-131.91042	450.92493	-779.92572	-81.82701	362.81522	-769.87374	-208.96830	91.53286	-774.81400	-268.57220	50.85373	-729.83710	-109.32811	44.68484	-803.75288	-59.27355	62.09575	-749.91055	-131.69495	280.19380	-396.45781	-165.56036	409.50693	-373.38382	-207.07937	300.23463	-374.03500	-156.13872	394.80781	-808.31642	-187.12187	276.45312	-817.04538	-362.74507	578.84052	-379.89872	-257.27985	542.94674	-379.44894	-293.60288	438.96201	-406.26318	-405.05284	476.81045	-393.18878	-260.33507	472.07638	-379.03194	-368.07696	597.65652	-790.77113	-241.43722	548.07120	-783.63978	-417.76129	495.56017	-795.35054	-288.46425	445.00387	-774.92575	-366.68063	606.52710	-481.69193	-523.55327	735.08742	-555.04520	-364.47160	623.76813	-694.85629	-523.73724	731.07233	-634.76701	-67.18750	884.20506	-592.74311	-44.23659	825.75933	-465.59409	-47.11764	818.61450	-712.98559	-54.20841	744.81027	-565.25847	-57.99288	739.33015	-594.82983	-29.14031	745.81873	-392.39306	-83.53022	546.62985	-317.95322	-43.33063	583.77795	-271.34752	49.13644	581.32547	-291.17815	169.65051	546.75840	-337.69095	170.22635	515.25571	-315.48817	-35.28950	745.62780	-788.38073	-48.28465	523.93552	-826.13649	-16.84463	563.78479	-872.72983	86.96549	544.74981	-853.68175	197.05239	511.49806	-807.07971	191.24963	476.60803	-826.47423	-477.36811	569.10086	-491.38745	-469.31187	580.91913	-698.40243	-457.55188	598.60546	-509.25168	-457.87685	591.50733	-650.22826	
1400	13.99000000	-151.76678	445.61172	-399.14012	-97.52705	387.83890	-397.24994	-222.38532	80.40173	-423.94812	-277.03643	53.72018	-470.81752	-115.61058	42.01743	-399.66860	-78.52583	63.64021	-452.06345	-133.01388	450.75235	-782.06517	-82.79460	362.86262	-770.84878	-209.19177	91.22290	-774.73859	-268.65261	50.78214	-729.92932	-109.39278	44.65989	-803.86182	-59.33502	62.29839	-750.07626	-132.22803	280.23417	-396.31519	-166.75662	409.49632	-372.86318	-207.71095	300.07456	-374.14531	-157.36753	394.60075	-809.49456	-187.88857	276.12451	-817.63686	-365.62061	576.10022	-379.87410	-259.70986	541.49656	-379.26539	-294.89526	437.02661	-406.27258	-406.80707	473.68964	-393.26978	-262.05105	470.38035	-379.03602	-371.12334	595.30628	-791.01742	-243.89165	547.13995	-784.57334	-419.62581	492.79289	-796.12348	-289.84906	443.49661	-776.05260	-369.39433	602.93831	-482.20392	-527.12392	730.56530	-555.13082	-367.46047	620.80698	-695.15630	-527.35497	726.72656	-634.65935	-71.55692	882.69904	-592.99143	-48.26311	824.46502	-465.82965	-51.42080	817.00323	-713.12141	-58.36829	743.47034	-565.32761	-63.52191	735.63010	-591.27699	-32.68557	744.65398	-392.60835	-85.83259	545.50907	-317.60506	-45.89096	582.64820	-271.41015	46.55654	580.32401	-291.29932	167.08483	545.78476	-337.73386	167.72740	514.45081	-315.33365	-39.56731	743.81372	-788.34967	-52.02973	522.02310	-825.53572	-20.81792	561.63501	-872.39896	82.85355	543.01754	-853.94543	193.19753	509.69835	-807.67898	187.29779	474.77885	-826.89168	-479.78830	564.73953	-491.86018	-471.94726	577.19323	-698.84484	-460.16764	594.57434	-509.66316	-460.57705	587.77658	-650.54734	
1401	14.00000000	-153.08067	445.58801	-398.54877	-98.40697	387.91830	-396.91074	-222.46343	80.43325	-424.01300	-277.01826	53.68349	-470.94287	-115.71700	42.05204	-399.67461	-78.60673	63.80873	-451.91187	-134.33273	450.76387	-783.63040	-83.77091	362.97439	-772.07719	-209.33371	91.06992	-774.88789	-268.69839	50.74106	-730.08794	-109.47852	44.67338	-804.03986	-59.45454	62.50140	-750.34661	-132.69717	280.27357	-396.27284	-167.87406	409.34053	-372.40946	-208.25600	299.90337	-374.07137	-158.60519	394.43053	-810.69639	-188.66112	275.90074	-818.48735	-368.51190	573.44126	-379.86885	-262.04503	540.11472	-379.03082	-296.11616	435.13342	-406.26580	-408.48983	470.52060	-393.22670	-263.72133	468.74240	-379.02294	-374.10971	592.92495	-791.27048	-246.32925	546.16130	-785.48637	-421.51110	490.02144	-796.96446	-291.23427	441.91607	-776.98684	-371.95042	599.02951	-483.20485	-530.79982	725.76368	-555.02936	-370.30330	617.73937	-695.08157	-531.10688	722.38566	-634.75264	-76.23765	881.61106	-593.25947	-52.58850	823.63851	-466.02565	-55.90360	815.77067	-713.06488	-61.84375	742.40783	-565.35581	-65.89380	736.44848	-594.57382	-36.35673	743.97017	-392.81798	-88.25151	544.69157	-317.48082	-48.54149	581.99975	-271.39625	43.88632	579.81710	-291.42532	164.46326	545.30851	-337.86854	165.18863	514.04441	-315.51129	-44.03602	742.53545	-788.39750	-55.24305	520.18799	-823.74498	-25.19658	560.32728	-872.11082	78.67905	541.74963	-854.32796	189.13419	508.56306	-808.46748	183.22189	473.31543	-827.19707	-482.16111	560.06318	-492.51319	-474.48444	573.42273	-699.44631	-462.45890	590.11393	-510.45446	-462.99949	584.16580	-650.71360	
1402	14.01000000	-154.39402	445.50633	-398.10214	-99.35543	388.07378	-396.52522	-222.56914	80.41854	-424.14882	-276.99116	53.64699	-471.07837	-115.78615	42.13638	-399.63210	-78.73025	63.94744	-451.79421	-135.81662	450.76883	-784.51834	-84.79407	363.25589	-773.35436	-209.45751	91.00063	-775.23886	-268.70652	50.67576	-730.18988	-109.56180	44.65832	-804.15639	-59.56049	62.76045	-750.71877	-133.15980	280.28128	-396.29918	-168.87168	408.99590	-372.23470	-208.77607	299.62016	-373.84806	-159.72642	394.29545	-811.77015	-189.46576	275.60425	-819.22575	-371.45922	570.85136	-379.86959	-264.43617	538.73039	-378.93963	-297.27036	433.28346	-406.09486	-410.09187	467.34044	-393.23620	-265.30902	467.23964	-378.95361	-377.00926	590.53725	-791.74375	-248.72848	545.10598	-786.26590	-423.38407	487.13186	-797.63423	-292.60772	440.38385	-777.97229	-374.51878	595.28332	-484.13865	-534.62163	720.94418	-554.84739	-373.00255	614.59603	-694.44114	-534.87841	718.06737	-634.98182	-81.28484	880.98518	-593.46120	-57.18447	823.29644	-466.28525	-60.59773	815.01855	-713.08558	-65.01151	741.60318	-565.35063	-67.05514	739.43370	-600.73468	-40.24381	743.80783	-393.02176	-91.29003	544.03379	-317.75941	-51.32694	581.73959	-271.58350	41.13950	579.73928	-291.66654	161.74705	545.42815	-338.04879	162.53158	514.00065	-315.93880	-48.71341	741.80775	-788.61297	-58.70313	518.82076	-822.23484	-29.84103	559.83948	-872.10396	74.39897	540.93494	-854.74069	185.04962	508.00670	-809.36340	179.06715	472.49781	-827.74036	-484.59174	555.49430	-492.95530	-476.84743	569.56099	-699.84078	-464.69589	585.63623	-511.26250	-465.14427	580.63303	-650.55916	
